<?xml version="1.0" standalone="no"?>
<!DOCTYPE svg PUBLIC "-//W3C//DTD SVG 20010904//EN"
 "http://www.w3.org/TR/2001/REC-SVG-20010904/DTD/svg10.dtd">
<svg version="1.0" xmlns="http://www.w3.org/2000/svg"
 width="512.000000pt" height="512.000000pt" viewBox="0 0 512.000000 512.000000"
 preserveAspectRatio="xMidYMid meet">
<metadata>
Created by potrace 1.16, written by Peter Selinger 2001-2019
</metadata>
<g transform="translate(0.000000,512.000000) scale(0.100000,-0.100000)"
fill="#fff" stroke="none">
<path d="M2230 5105 c-484 -81 -892 -433 -1050 -903 -87 -260 -86 -596 2 -856
128 -378 430 -690 803 -829 601 -223 1264 2 1617 549 188 293 249 697 158
1056 -130 508 -551 890 -1085 984 -98 17 -341 17 -445 -1z"/>
<path d="M1147 2396 c-55 -20 -102 -55 -129 -97 -38 -58 -489 -1044 -504
-1102 -49 -186 42 -422 203 -525 74 -47 1562 -636 1657 -656 100 -21 298 -21
404 -1 45 9 118 31 164 49 321 130 1424 594 1471 619 76 40 149 121 179 201
30 80 32 207 4 281 -20 51 -576 1037 -626 1110 -61 88 -132 128 -236 133 -98
5 -164 -16 -309 -98 -280 -160 -525 -236 -837 -260 -388 -29 -751 59 -1122
274 -140 81 -234 102 -319 72z"/>
</g>
</svg>
