<?xml version="1.0" standalone="no"?>
<!DOCTYPE svg PUBLIC "-//W3C//DTD SVG 20010904//EN"
 "http://www.w3.org/TR/2001/REC-SVG-20010904/DTD/svg10.dtd">
<svg version="1.0" xmlns="http://www.w3.org/2000/svg"
 width="512.000000pt" height="512.000000pt" viewBox="0 0 512.000000 512.000000"
 preserveAspectRatio="xMidYMid meet">
<metadata>
Created by potrace 1.16, written by Peter Selinger 2001-2019
</metadata>
<g transform="translate(0.000000,512.000000) scale(0.100000,-0.100000)"
fill="#fff" stroke="none">
<path d="M2350 5109 c-469 -75 -865 -411 -1018 -864 -54 -161 -55 -172 -59
-752 l-4 -543 320 0 321 0 0 463 c0 274 4 488 11 527 38 233 201 426 431 508
65 23 88 26 208 26 120 0 143 -3 208 -26 199 -71 348 -223 413 -423 23 -69 24
-79 27 -572 l3 -503 320 0 320 0 -4 543 c-3 474 -6 551 -21 617 -89 379 -325
690 -654 863 -205 108 -374 148 -617 146 -82 -1 -175 -5 -205 -10z"/>
<path d="M633 2690 c-18 -10 -40 -31 -50 -47 -17 -26 -18 -91 -21 -1248 -2
-671 0 -1244 3 -1273 5 -42 13 -60 41 -87 l35 -35 1919 0 1919 0 35 35 c28 27
36 45 41 87 3 29 5 602 3 1273 -3 1157 -4 1222 -21 1248 -10 16 -32 37 -50 47
-31 20 -66 20 -1927 20 -1861 0 -1896 0 -1927 -20z m2038 -598 c186 -52 310
-214 310 -407 1 -134 -50 -241 -158 -332 -32 -26 -63 -55 -70 -63 -29 -36 -25
-79 31 -345 60 -284 64 -320 41 -364 -28 -55 -64 -63 -281 -59 l-196 3 -34 37
c-27 30 -34 46 -34 77 0 22 25 156 55 298 30 142 55 269 55 281 0 41 -30 86
-90 134 -109 88 -161 196 -161 333 0 120 38 211 124 297 112 112 258 151 408
110z"/>
</g>
</svg>
