<?xml version="1.0" standalone="no"?>
<!DOCTYPE svg PUBLIC "-//W3C//DTD SVG 20010904//EN"
 "http://www.w3.org/TR/2001/REC-SVG-20010904/DTD/svg10.dtd">
<svg version="1.0" xmlns="http://www.w3.org/2000/svg"
 width="512.000000pt" height="512.000000pt" viewBox="0 0 512.000000 512.000000"
 preserveAspectRatio="xMidYMid meet">
<metadata>
Created by potrace 1.16, written by Peter Selinger 2001-2019
</metadata>
<g transform="translate(0.000000,512.000000) scale(0.100000,-0.100000)"
fill="#fff" stroke="none">
<path d="M286 4379 c-40 -10 -156 -67 -156 -78 0 -12 2424 -2266 2435 -2265
14 1 2385 2283 2385 2294 0 4 -24 18 -53 31 l-52 24 -2260 2 c-1339 0 -2276
-3 -2299 -8z"/>
<path d="M4333 3287 c-429 -414 -780 -755 -780 -759 1 -3 353 -334 782 -734
l780 -728 3 748 c1 411 1 1080 0 1486 l-3 739 -782 -752z"/>
<path d="M1 2503 c0 -808 4 -1476 7 -1486 6 -14 161 130 782 728 426 410 776
750 778 754 1 5 -351 337 -783 740 l-785 731 1 -1467z"/>
<path d="M2980 1980 c-363 -349 -371 -355 -452 -331 -47 15 -47 14 -403 346
-159 149 -295 274 -301 278 -7 4 -324 -294 -795 -748 -431 -416 -785 -759
-787 -764 -10 -30 146 -32 2368 -29 l2235 3 48 22 c27 13 47 27 45 32 -4 12
-1610 1511 -1619 1511 -3 0 -156 -144 -339 -320z"/>
</g>
</svg>
