<?xml version="1.0" encoding="utf-8"?>
<!-- Generator: Adobe Illustrator 25.0.1, SVG Export Plug-In . SVG Version: 6.00 Build 0)  -->
<svg version="1.1" id="Ebene_1" xmlns="http://www.w3.org/2000/svg" xmlns:xlink="http://www.w3.org/1999/xlink" x="0px" y="0px"
	 viewBox="0 0 500 500" style="enable-background:new 0 0 500 500;" xml:space="preserve">
<style type="text/css">
	.st0{display:none;fill:url(#SVGID_1_);}
	.st1{fill:#EA9840;}
	.st2{fill:#AB5900;}
	.st3{fill:#F7B658;}
	.st4{fill:#D68734;}
	.st5{fill:#B25F20;}
	.st6{fill:#6C3906;}
	.st7{opacity:0.5;}
	.st8{opacity:0.3;}
	.st9{opacity:0.6;}
	.st10{opacity:0.8;}
</style>
<g id="Ebene_1_1_">
	
		<radialGradient id="SVGID_1_" cx="7.1016" cy="152.7785" r="87.868" gradientTransform="matrix(2.5226 0 0 -2.4859 235.5403 635.2314)" gradientUnits="userSpaceOnUse">
		<stop  offset="0" style="stop-color:#000000"/>
		<stop  offset="1" style="stop-color:#FFFFFF"/>
	</radialGradient>
	<path class="st0" d="M131,62.8c51.8-29.3,106.6-24.4,133.6-21.9c19.3,1.7,54.5,5.3,93.5,26.3c59,31.8,85.3,81.4,93.5,97.4
		c31,60.4,26,115.7,24,134.2c-2.2,20.9-5,48.2-21.4,76.3c-37,63.7-113,80.5-141.6,86.9c-34.7,7.7-140.8,31.1-219-39.5
		c-80.2-72.4-64.1-182.9-58.8-210.6C38.7,191.6,55.3,105.6,131,62.8z"/>
	<g id="Keks">
		<g>
			<path class="st1" d="M138.4,73.9c45.4-26.1,93.4-21.7,117-19.5c16.9,1.5,47.7,4.7,81.9,23.4c51.7,28.3,74.7,72.4,81.9,86.6
				c27.1,53.7,22.8,102.8,21.1,119.4c-1.9,18.6-4.4,42.8-18.7,67.9c-32.4,56.6-99,71.6-124,77.2c-30.4,6.8-123.3,27.7-191.9-35.1
				c-70.3-64.3-56.1-162.6-51.5-187.2C57.6,188.5,72.1,112,138.4,73.9z"/>
			<path class="st2" d="M227.5,442.2c-39,0-85.7-9.3-124.8-45.1c-70.4-64.5-58.3-162.7-52.8-191.3C64.9,126,105.1,87.9,136.2,70.1
				l0,0c46.6-26.8,95.9-22.2,119.6-20.1c15.6,1.4,48,4.4,83.6,23.9c35.8,19.6,64,49.4,83.7,88.5c18.8,37.1,26,78.1,21.5,121.8
				c-1.9,18.5-4.5,43.8-19.3,69.6c-33.4,58.3-101.3,73.6-126.9,79.4C284.7,436.3,258.5,442.2,227.5,442.2z M140.6,77.8
				C111.1,94.7,73,130.9,58.5,207.4c-5.2,27.4-16.9,121.7,50.1,183.1c66.9,61.2,158,40.8,187.9,34c24.5-5.5,89.7-20.1,121.2-75.1
				c13.9-24.2,16.2-47.5,18.2-66.1c4.3-42-2.6-81.3-20.6-116.9c-19-37.5-45.9-66-80.1-84.7C301.1,63.1,270,60.2,255,58.8
				C232.2,56.8,184.8,52.4,140.6,77.8L140.6,77.8z"/>
		</g>
		<path class="st3" d="M153.6,98.3C192.6,76,233.8,79.7,254,81.6c14.5,1.3,41,4,70.3,20.1c44.3,24.3,64.1,62.1,70.3,74.3
			c23.3,46.1,19.5,88.2,18.1,102.4c-1.6,16-3.8,36.7-16.1,58.2c-27.8,48.6-84.9,61.4-106.4,66.3c-26.1,5.9-105.8,23.8-164.6-30.1
			c-60.3-55.2-48.2-139.5-44.2-160.6C84.3,196.6,96.7,130.9,153.6,98.3z"/>
	</g>
	<g id="Schokostücke">
		<g>
			<path class="st4" d="M134.3,279.2c-3.6,0-6.9-0.8-9.7-2.5c-8.3-4.9-10.8-15.8-7.3-32.4c0.9-4.4,2.2-10.4,7.6-14
				c7.6-5.1,17.8-7.4,23.5-1.3c0.3,0.3,1.5,0.9,2.4,1.3c4.1,1.9,11,5,14,16.3c1.9,7-3.8,13.7-7.2,17.6c-0.5,0.6-1.2,1.4-1.5,1.8
				c-1.4,4.5-5.8,8.7-11.8,11.1C141,278.5,137.6,279.2,134.3,279.2z M139.2,234.1c-2.5,0-6.2,1.3-9.5,3.5c-2.2,1.5-2.9,4.3-3.8,8.4
				l0,0c-2.6,12.5-1.5,20.2,3.2,23c2.9,1.7,7.5,1.7,11.9-0.1c4-1.7,6.3-4.1,6.8-5.7c0.4-1.5,1.4-2.8,3.1-4.7c2-2.3,6.1-7.1,5.4-9.6
				c-1.9-7.2-5.6-8.9-9.1-10.6c-1.8-0.9-3.8-1.7-5.2-3.3C141.3,234.4,140.4,234.1,139.2,234.1z"/>
			<g>
				<path class="st5" d="M119.3,240.7c0.9-4.3,1.9-8.7,5.7-11.2c5.3-3.5,13.7-6.4,17.8-1.9c3.1,3.3,11.9,2.7,15.4,15.7
					c1.8,6.6-8,14.6-8.5,16.6c-1.9,7.3-16.4,13.7-25.2,8.5C114.8,262.7,118.3,245.9,119.3,240.7z"/>
				<path class="st6" d="M132.1,274.8c-3.6,0-6.9-0.8-9.7-2.5c-8.3-4.9-10.8-15.8-7.3-32.4c0.9-4.4,2.2-10.4,7.6-14
					c7.6-5.1,17.8-7.4,23.5-1.3c0.3,0.3,1.5,0.9,2.4,1.3c4.1,1.9,11,5,14,16.3c1.9,7-3.8,13.7-7.2,17.6c-0.5,0.6-1.2,1.4-1.5,1.8
					c-1.4,4.5-5.8,8.7-11.8,11.1C138.8,274.1,135.3,274.8,132.1,274.8z M137,229.7c-2.5,0-6.2,1.3-9.5,3.5c-2.2,1.5-2.9,4.3-3.8,8.4
					l0,0c-2.6,12.5-1.5,20.2,3.2,23c2.9,1.7,7.5,1.7,11.9-0.1c4-1.7,6.3-4.1,6.8-5.7c0.4-1.5,1.4-2.8,3.1-4.7c2-2.3,6.1-7.1,5.4-9.6
					c-1.9-7.2-5.6-8.9-9.1-10.6c-1.8-0.9-3.8-1.7-5.2-3.3C139.1,230,138.1,229.7,137,229.7z"/>
			</g>
		</g>
		<g>
			<path class="st4" d="M259.1,316.1c-3.9,0-7.5-1-10.6-3.1c-13.1-8.7-9-31.2-7.7-38.6l0,0c1-5.5,2.3-12.3,7.9-16.5
				c8.3-6.2,19.4-9.1,25.5-1.7c0.4,0.5,1.6,1.1,2.8,1.7c4.7,2.4,11.7,6.1,14.9,19.4c1.9,7.9-4.1,15.7-7.6,20.4
				c-0.6,0.9-1.4,1.9-1.7,2.4c-1.5,5.8-6.9,11.1-14.1,14C265.4,315.4,262.2,316.1,259.1,316.1z M264.5,260.7c-3,0-7.1,1.8-10.4,4.3
				c-2.6,2-3.5,5.8-4.5,11.1l0,0c-3.7,19.9,0.1,27.1,3.9,29.6c3,2,7.4,2.1,11.9,0.3c4.5-1.8,8.1-5.1,8.8-8.1c0.4-1.6,1.4-3,3.2-5.4
				c2.5-3.2,7-9.3,6.1-13.1c-2.2-9.4-6.4-11.5-10.4-13.6c-2-1-4-2.1-5.6-4C266.8,261,265.8,260.7,264.5,260.7z M282.8,299.9
				C282.7,299.9,282.7,299.9,282.8,299.9C282.7,299.9,282.7,299.9,282.8,299.9z"/>
			<g>
				<path class="st5" d="M242.7,269.8c1-5.3,2-10.7,6.2-13.8c5.7-4.3,15-7.9,19.5-2.4c3.3,4.1,13,3.3,16.8,19.3
					c1.9,8.2-8.7,18-9.3,20.5c-2.1,9-17.9,16.8-27.5,10.5C237.8,296.8,241.6,276.1,242.7,269.8z"/>
				<path class="st6" d="M256.6,310.6c-3.9,0-7.5-1-10.6-3.1c-13.1-8.7-9-31.2-7.7-38.6c1-5.5,2.3-12.3,7.9-16.5
					c8.3-6.2,19.4-9.1,25.5-1.7c0.4,0.5,1.6,1.1,2.8,1.7c4.7,2.4,11.7,6.1,14.9,19.4c1.9,7.9-4.1,15.7-7.6,20.5
					c-0.6,0.9-1.4,1.9-1.7,2.4c-1.5,5.8-6.9,11.1-14.1,14C262.9,310,259.7,310.6,256.6,310.6z M261.9,255.3c-3,0-7.1,1.8-10.4,4.3
					c-2.6,2-3.5,5.8-4.5,11.1l0,0c-3.7,19.9,0.1,27.1,3.9,29.6c3,2,7.4,2.1,11.9,0.3c4.5-1.8,8.1-5.1,8.8-8.1c0.4-1.6,1.4-3,3.2-5.4
					c2.5-3.2,7-9.3,6.1-13.1c-2.2-9.4-6.4-11.5-10.4-13.6c-2-1-4-2.1-5.6-4C264.3,255.6,263.3,255.3,261.9,255.3z"/>
			</g>
		</g>
		<g>
			<path class="st4" d="M326.2,389.6c-3.6,0-6.9-0.8-9.7-2.5c-8.3-4.9-10.8-15.8-7.4-32.4l0,0c0.9-4.4,2.2-10.4,7.6-14
				c7.6-5,17.8-7.4,23.5-1.3c0.3,0.3,1.5,0.9,2.5,1.3c4.1,1.9,11,5,14,16.3c1.9,7-3.8,13.7-7.2,17.6c-0.5,0.6-1.2,1.4-1.5,1.8
				c-1.4,4.5-5.8,8.7-11.8,11.1C332.9,388.9,329.5,389.6,326.2,389.6z M313.5,355.6l4.3,0.9c-2.6,12.5-1.5,20.2,3.2,23
				c2.9,1.7,7.5,1.7,11.9-0.1c4-1.7,6.3-4.1,6.8-5.7c0.4-1.5,1.4-2.8,3.1-4.7c2-2.3,6.1-7.1,5.4-9.6c-1.9-7.2-5.6-8.9-9.1-10.5
				c-1.8-0.9-3.8-1.7-5.2-3.3c-1.7-1.8-7.3-0.6-12.2,2.6c-2.2,1.5-2.9,4.3-3.8,8.4L313.5,355.6z M348.2,375.9L348.2,375.9
				L348.2,375.9z"/>
			<g>
				<path class="st5" d="M311.3,351.1c0.9-4.3,1.9-8.7,5.7-11.2c5.3-3.5,13.7-6.4,17.9-1.9c3.1,3.3,11.9,2.7,15.4,15.7
					c1.8,6.6-8,14.6-8.5,16.6c-1.9,7.3-16.4,13.7-25.2,8.5C306.7,373.1,310.2,356.3,311.3,351.1z"/>
				<path class="st6" d="M324,385.2c-3.6,0-6.9-0.8-9.7-2.5c-8.3-4.9-10.8-15.8-7.4-32.4l0,0c0.9-4.4,2.2-10.4,7.6-14
					c7.6-5,17.8-7.4,23.5-1.3c0.3,0.3,1.5,0.9,2.5,1.3c4.1,1.9,11,5,14,16.3c1.9,7-3.8,13.7-7.2,17.6c-0.5,0.6-1.2,1.4-1.5,1.8
					c-1.4,4.5-5.8,8.7-11.8,11.1C330.7,384.5,327.3,385.2,324,385.2z M311.3,351.1l4.3,0.9c-2.6,12.5-1.5,20.2,3.2,23
					c2.9,1.7,7.5,1.7,11.9-0.1c4-1.7,6.3-4.1,6.8-5.7c0.4-1.5,1.4-2.8,3.1-4.7c2-2.3,6.1-7.1,5.4-9.6c-1.9-7.2-5.6-8.9-9.1-10.5
					c-1.8-0.9-3.8-1.7-5.2-3.3c-1.7-1.8-7.3-0.6-12.2,2.6c-2.2,1.5-2.9,4.3-3.8,8.4L311.3,351.1z M346,371.5L346,371.5L346,371.5z"
					/>
			</g>
		</g>
		<g>
			<path class="st4" d="M386,301.9c-4.1,0-8.9-1.5-20.4-8.8c-7-4.4-8.1-9.6-8.8-12.4c-0.1-0.4-0.2-1-0.3-1.1c-2.7-5-2.4-12.5,1-19.8
				c3.8-8.3,10.4-14.3,17.6-15.9c15.4-3.5,23.1,10.5,26.8,17.2c0.5,0.9,1,1.7,1.4,2.4l0,0c0.6,1,1.7,2.4,2.8,3.9
				c3.9,5.2,8.8,11.6,7.4,17.8c-2.4,10.2-13.8,16.8-22.8,16.5c-0.7,0-1.4,0-2.1,0.1C387.7,301.8,386.9,301.9,386,301.9z
				 M379.7,252.1c-0.8,0-1.7,0.1-2.6,0.3c-4.5,1-8.9,5.2-11.5,11c-2.1,4.6-2.6,9.5-1.2,12c0.6,1.1,0.9,2.2,1.1,3.3
				c0.5,2.3,1,4.4,4.9,6.9c12.4,7.9,14.8,7.6,17.4,7.3c0.9-0.1,2-0.2,3.3-0.2c5.5,0.2,12.7-4,14-9.7c0.5-2.1-3.8-7.7-5.8-10.4
				c-1.3-1.6-2.4-3.2-3.3-4.6l0,0c-0.5-0.8-1-1.7-1.6-2.8C390.4,258.3,386.3,252.1,379.7,252.1z"/>
			<g>
				<path class="st5" d="M397.3,261.3c2.9,4.7,11,12.8,9.7,18.4c-1.8,7.7-10.8,13.3-18.4,13.1c-5.3-0.1-6,2.9-22.9-7.9
					c-7.3-4.6-6.3-9.5-7.5-11.8c-4.5-8.4,3.3-26.6,15.7-29.4C387.9,240.6,393.9,255.7,397.3,261.3z"/>
				<path class="st6" d="M383.8,297.5c-4.1,0-8.9-1.5-20.4-8.8c-7-4.4-8.1-9.6-8.8-12.4c-0.1-0.4-0.2-1-0.3-1.1
					c-2.7-5-2.4-12.5,1-19.8c3.8-8.3,10.4-14.3,17.6-15.9c15.4-3.5,23.1,10.5,26.8,17.2c0.5,0.9,1,1.7,1.4,2.4l0,0
					c0.6,1,1.7,2.4,2.8,3.9c3.9,5.2,8.8,11.6,7.4,17.8c-2.4,10.2-13.8,16.7-22.8,16.5c-0.7,0-1.4,0-2.1,0.1
					C385.5,297.4,384.7,297.5,383.8,297.5z M377.5,247.7c-0.8,0-1.7,0.1-2.6,0.3c-4.5,1-8.9,5.2-11.5,11c-2.1,4.6-2.6,9.5-1.2,12
					c0.6,1.1,0.9,2.2,1.1,3.3c0.5,2.3,1,4.4,4.9,6.9c12.4,7.9,14.8,7.6,17.4,7.3c0.9-0.1,1.9-0.2,3.3-0.2c5.5,0.1,12.7-4,14-9.7
					c0.5-2.1-3.8-7.7-5.8-10.4c-1.3-1.6-2.4-3.2-3.3-4.6l0,0c-0.5-0.8-1-1.7-1.6-2.8C388.2,253.9,384.1,247.7,377.5,247.7z"/>
			</g>
		</g>
		<g>
			<path class="st4" d="M190.9,395c-1.4,0-2.8-0.1-4.1-0.5c-10.2-2.3-16.4-12.9-18.4-31.4c-0.5-4.9-1.2-11.6,3.1-17
				c5.5-6.9,17.4-9,25.3-4.6c3.6,2,4.9,4.6,6.6,8.2c1.3,2.6,3,6.1,6.4,11.4c1.3,2.1,2.3,3.5,3.1,4.6c1.7,2.5,2.8,4,2.9,6.8
				c0.3,5.3-2.9,11.2-8.5,16C202.3,392.7,196.4,395,190.9,395z M187.3,348c-3.4,0-7,1.3-8.9,3.6c-2,2.5-1.8,5.8-1.3,10.6l0,0
				c1.5,14.3,5.4,22.3,11.6,23.7c3.8,0.9,8.8-0.8,12.9-4.3c3.9-3.2,5.5-6.8,5.4-8.7c-0.1-0.4-0.7-1.3-1.3-2.2
				c-0.8-1.1-1.9-2.6-3.3-4.9c-3.7-5.8-5.6-9.7-6.9-12.3c-1.6-3.2-1.9-3.7-3-4.4C191,348.4,189.2,348,187.3,348z"/>
			<g>
				<path class="st5" d="M170.6,358.3c-0.5-4.9-1-9.8,2.2-13.8c4.4-5.5,13.8-6.8,19.7-3.5c4.4,2.5,3.4,5.5,11.5,18.1
					c4.1,6.4,5.2,6.9,5.3,9.2c0.4,8.4-12.8,20-23.7,17.5C173.2,383,171.2,364,170.6,358.3z"/>
				<path class="st6" d="M188.6,390.6c-1.4,0-2.8-0.1-4.1-0.5c-10.2-2.3-16.4-12.9-18.4-31.4c-0.5-4.9-1.2-11.6,3.1-17
					c5.5-6.9,17.4-9,25.3-4.6c3.6,2,4.9,4.6,6.6,8.2c1.3,2.6,3,6.1,6.4,11.4c1.3,2.1,2.3,3.5,3.1,4.6c1.7,2.5,2.8,4,2.9,6.8
					c0.3,5.3-2.9,11.2-8.5,16C200.1,388.2,194.2,390.6,188.6,390.6z M185.1,343.6c-3.4,0-7,1.3-8.9,3.6c-2,2.5-1.8,5.8-1.3,10.6l0,0
					c1.5,14.3,5.4,22.3,11.6,23.7c3.8,0.9,8.8-0.8,12.9-4.3c3.9-3.2,5.5-6.8,5.4-8.7c-0.1-0.4-0.7-1.3-1.3-2.2
					c-0.8-1.1-1.9-2.6-3.3-4.9c-3.7-5.8-5.6-9.7-6.9-12.3c-1.6-3.2-1.9-3.7-3-4.4C188.8,344,187,343.6,185.1,343.6z"/>
			</g>
		</g>
		<g>
			<path class="st4" d="M283,147.8c-1.4,0-2.8-0.1-4.1-0.4c-10.2-2.3-16.4-12.9-18.4-31.4l0,0c-0.5-4.9-1.2-11.6,3.1-17
				c5.5-6.9,17.4-9,25.3-4.6c3.6,2.1,4.9,4.6,6.6,8.2c1.3,2.6,3,6.1,6.4,11.4c1.3,2.1,2.3,3.5,3.1,4.6c1.7,2.5,2.8,4,2.9,6.8
				c0.3,5.3-2.9,11.2-8.5,16C294.5,145.4,288.5,147.8,283,147.8z M269.3,115c1.5,14.3,5.4,22.3,11.5,23.7c3.8,0.9,8.8-0.8,13-4.3
				c3.9-3.2,5.5-6.8,5.4-8.7c-0.1-0.4-0.7-1.3-1.3-2.2c-0.8-1.1-1.9-2.7-3.3-4.8c-3.7-5.8-5.6-9.7-6.9-12.3c-1.6-3.2-1.9-3.7-3-4.4
				c-4.3-2.4-11.2-1.2-14.1,2.4C268.6,106.8,268.8,110.2,269.3,115l-4.4,0.5L269.3,115z"/>
			<g>
				<path class="st5" d="M262.7,111c-0.5-4.9-1-9.8,2.2-13.8c4.4-5.5,13.8-6.8,19.7-3.5c4.4,2.4,3.4,5.5,11.5,18.1
					c4.1,6.4,5.2,6.9,5.3,9.2c0.4,8.4-12.8,20-23.7,17.5C265.3,135.8,263.3,116.8,262.7,111z"/>
				<path class="st6" d="M280.8,143.3c-1.4,0-2.8-0.1-4.1-0.4c-10.2-2.3-16.4-12.9-18.4-31.4l0,0c-0.5-4.9-1.2-11.6,3.1-17
					c5.5-6.9,17.4-9,25.3-4.6c3.6,2.1,4.9,4.6,6.6,8.2c1.3,2.6,3,6.1,6.4,11.4c1.3,2.1,2.3,3.5,3.1,4.6c1.7,2.5,2.8,4,2.9,6.8
					c0.3,5.3-2.9,11.2-8.5,16C292.2,141,286.3,143.3,280.8,143.3z M267.1,110.6c1.5,14.3,5.4,22.3,11.5,23.7c3.8,0.9,8.8-0.8,13-4.3
					c3.9-3.2,5.5-6.8,5.4-8.7c-0.1-0.4-0.7-1.3-1.3-2.2c-0.8-1.1-1.9-2.7-3.3-4.8c-3.7-5.8-5.6-9.7-6.9-12.3c-1.6-3.2-1.9-3.7-3-4.4
					c-4.3-2.4-11.2-1.2-14.1,2.4C266.4,102.4,266.6,105.8,267.1,110.6l-4.4,0.5L267.1,110.6z"/>
			</g>
		</g>
		<g>
			<path class="st4" d="M350.1,214.5c-3.9,0-7.5-0.9-10.5-2.7c-13.5-8-10.1-24.7-8.8-31l4.3,0.9l-4.3-0.9c1.7-8.3,4-16.4,9-19.8
				c6.6-4.4,15-1.9,23.1,6.8c0.3,0.4,1,0.7,2.1,1.1c4.6,2,9.4,4.9,12.4,16.2c2,7.4-1.3,11.7-3.1,14c-0.2,0.3-0.4,0.5-0.6,0.7
				c-1.5,5-6.3,9.6-12.9,12.4C357.2,213.8,353.6,214.5,350.1,214.5z M346.8,167.8c-0.7,0-1.4,0.2-2,0.6c-1.3,0.9-3.2,4-5.3,14.2v0
				c-1.7,8.3-2.5,17.4,4.7,21.6c3.3,2,8.4,1.9,13.4-0.1c4-1.6,7.2-4.4,7.8-6.7c0.4-1.5,1.3-2.6,2-3.6c1.3-1.7,2.4-3.1,1.5-6.3
				c-2.2-8.1-4.6-9.2-7.3-10.3c-1.5-0.7-3.5-1.5-5.1-3.3C355.4,172.8,350.6,167.8,346.8,167.8z M373.8,199.7
				C373.8,199.7,373.8,199.7,373.8,199.7C373.8,199.7,373.8,199.7,373.8,199.7z"/>
			<g>
				<path class="st5" d="M332.9,177.3c1-4.8,3-14.2,7.2-17c5.8-3.9,12.9,1.2,17.4,6.2c3.4,3.7,9.6,1,13.4,15.4c2,7.4-3,10-3.6,12.2
					c-2.1,8.1-18.1,15.2-27.7,9.5C328.9,197.2,331.8,183,332.9,177.3z"/>
				<path class="st6" d="M347.9,210.1c-3.9,0-7.5-0.9-10.5-2.7c-13.5-8-10.1-24.7-8.8-31l4.3,0.9l-4.3-0.9c1.7-8.3,4-16.4,9-19.8
					c6.6-4.4,15-1.9,23.1,6.8c0.3,0.4,1,0.7,2.1,1.1c4.6,2,9.4,4.9,12.4,16.2c2,7.4-1.3,11.7-3.1,14c-0.2,0.3-0.4,0.5-0.6,0.7
					c-1.5,5-6.3,9.6-12.9,12.4C355,209.4,351.4,210.1,347.9,210.1z M344.6,163.4c-0.7,0-1.4,0.2-2,0.6c-1.3,0.9-3.2,4-5.3,14.2v0
					c-1.7,8.3-2.5,17.4,4.7,21.6c3.3,2,8.4,1.9,13.4-0.1c4-1.6,7.2-4.4,7.8-6.7c0.4-1.5,1.3-2.6,2-3.6c1.3-1.7,2.4-3.1,1.5-6.3
					c-2.2-8.1-4.6-9.2-7.3-10.3c-1.5-0.7-3.5-1.5-5.1-3.3C353.2,168.3,348.4,163.4,344.6,163.4z M371.6,195.3
					C371.6,195.3,371.6,195.3,371.6,195.3C371.6,195.3,371.6,195.3,371.6,195.3z"/>
			</g>
		</g>
		<g>
			<path class="st4" d="M224,223.5c-3.7,0-7.1-0.9-10-2.6c-12.9-7.7-9.5-24-8.4-29.4l4.3,0.9l-4.3-0.9c1.6-7.8,3.8-15.5,8.6-18.8
				c6.3-4.3,14.4-1.9,22.1,6.5c0.3,0.3,1,0.6,1.8,1c4.4,1.9,8.9,4.6,11.8,15.4c1.9,7.1-1.4,11.4-2.9,13.4c-0.2,0.2-0.4,0.4-0.5,0.6
				c-1.4,4.8-6,9.2-12.3,11.8C230.8,222.8,227.3,223.5,224,223.5z M220.9,179.6c-0.6,0-1.2,0.2-1.8,0.5c-1.1,0.8-2.9,3.7-4.9,13.2
				l0,0c-1.6,7.7-2.3,16.1,4.3,20.1c3,1.8,7.8,1.8,12.3-0.1c4.3-1.8,6.7-4.4,7.2-6.1c0.4-1.4,1.2-2.5,2-3.5c1.3-1.6,2.2-2.8,1.4-5.7
				c-2-7.5-4.2-8.5-6.7-9.6c-1.5-0.6-3.3-1.4-4.9-3.1C227.2,182.4,223.6,179.6,220.9,179.6z M246.6,209.3L246.6,209.3L246.6,209.3z"
				/>
			<g>
				<path class="st5" d="M207.7,187.9c0.9-4.5,2.8-13.3,6.8-16c5.4-3.6,12.1,1.1,16.4,5.8c3.2,3.4,9,0.9,12.6,14.5
					c1.8,6.9-2.8,9.4-3.4,11.5c-2,7.7-17,14.3-26,8.9C203.9,206.6,206.6,193.3,207.7,187.9z"/>
				<path class="st6" d="M221.8,219.1c-3.7,0-7.1-0.9-10-2.6c-12.9-7.7-9.5-24-8.4-29.4l4.3,0.9l-4.3-0.9c1.6-7.8,3.8-15.5,8.6-18.8
					c6.3-4.3,14.4-1.9,22.1,6.5c0.3,0.3,1,0.6,1.8,1c4.4,1.9,8.9,4.6,11.8,15.4c1.9,7.1-1.4,11.4-2.9,13.4c-0.2,0.2-0.4,0.4-0.5,0.6
					c-1.4,4.8-6,9.2-12.3,11.8C228.6,218.4,225.1,219.1,221.8,219.1z M218.7,175.1c-0.6,0-1.2,0.2-1.8,0.5
					c-1.1,0.8-2.9,3.7-4.9,13.2l0,0c-1.6,7.7-2.3,16.1,4.3,20.1c3,1.8,7.8,1.8,12.3-0.1c4.3-1.8,6.7-4.4,7.2-6.1
					c0.4-1.4,1.2-2.5,2-3.5c1.3-1.6,2.2-2.8,1.4-5.7c-2-7.5-4.2-8.5-6.7-9.6c-1.5-0.6-3.3-1.4-4.9-3.1
					C225,177.9,221.4,175.1,218.7,175.1z M244.4,204.9L244.4,204.9L244.4,204.9z"/>
			</g>
		</g>
		<g>
			<path class="st4" d="M155.6,157.8c-2.1,0-4.6-0.4-7.6-1.2c-6.4-1.8-8.2-6.3-9.1-8.4c-0.1-0.2-0.1-0.4-0.2-0.5
				c-3-3.3-4.3-8.8-3.5-14.8c1-6.8,4.5-12.6,9.5-15.3c11.7-6.4,22.7,3.4,26.3,6.7h0c5.2,4.7,10.1,9.8,10.4,15
				c0.4,6.8-5.2,12.1-15,14.3c-0.2,0.1-0.8,0.5-1.3,0.9C162.7,156.1,160.1,157.8,155.6,157.8z M152.9,124.3c-1.3,0-2.6,0.3-3.9,1
				c-2.5,1.4-4.4,4.8-5,8.8c-0.5,3.6,0.3,6.5,1.3,7.5c1,1,1.5,2.2,1.9,3.2c0.6,1.6,1,2.6,3.3,3.2c6.2,1.7,7.8,0.6,9.6-0.7
				c1.2-0.9,2.6-1.9,4.7-2.4c4.1-0.9,8.2-2.8,8-5.1c0-0.7-0.9-3-7.5-9h0C161.3,127.5,157.1,124.3,152.9,124.3z"/>
			<g>
				<path class="st5" d="M165.8,123.1c3,2.7,8.7,7.9,9,12c0.3,5.7-6.1,8.5-11.5,9.7c-3.9,0.9-4.6,6.3-16.4,3c-6-1.7-5.8-6.2-7.1-7.5
					c-4.8-4.9-3.2-18.9,4.8-23.3C153.5,112.1,162.3,119.9,165.8,123.1z"/>
				<path class="st6" d="M153.4,153.3c-2.1,0-4.6-0.4-7.6-1.2c-6.4-1.8-8.2-6.3-9.1-8.4c-0.1-0.2-0.1-0.4-0.2-0.5
					c-3-3.3-4.3-8.8-3.5-14.8c1-6.8,4.5-12.6,9.5-15.3c11.7-6.4,22.7,3.4,26.3,6.7h0c5.2,4.7,10.1,9.8,10.4,15
					c0.4,6.8-5.2,12.1-15,14.3c-0.2,0.1-0.8,0.5-1.3,0.9C160.5,151.7,157.9,153.3,153.4,153.3z M150.6,119.8c-1.3,0-2.6,0.3-3.9,1
					c-2.5,1.4-4.4,4.8-5,8.8c-0.5,3.6,0.3,6.5,1.3,7.5c1,1,1.5,2.2,1.9,3.2c0.6,1.6,1,2.6,3.3,3.2c6.2,1.7,7.8,0.6,9.6-0.7
					c1.2-0.9,2.6-1.9,4.7-2.4c4.1-0.9,8.2-2.8,8-5.1c0-0.7-0.9-3-7.5-9h0C159.1,123,154.9,119.8,150.6,119.8z"/>
			</g>
		</g>
	</g>
	<g id="Poren">
		<g class="st7">
			<path class="st4" d="M182.9,289.9c1.2-2.5,1.7-3.8,3.1-4.2c1.4-0.4,2.9,0.3,3.7,1.2c1.6,1.6,1.4,4.2,0.4,5.9
				c-1.1,1.8-2.9,2.2-4.3,2.5c-1.2,0.3-3.3,0.8-4.1-0.2C180.9,294.2,181.7,292.4,182.9,289.9z"/>
			<path class="st4" d="M183.4,296.8c-1,0-1.9-0.2-2.5-1c-1.2-1.5-0.3-3.5,1-6.4l0,0c1.2-2.6,2-4.2,3.8-4.8c1.8-0.5,3.7,0.4,4.8,1.5
				c2,2,1.8,5.2,0.5,7.2c-1.3,2.1-3.5,2.7-5,3C185.4,296.6,184.4,296.8,183.4,296.8z M186.8,286.8c-0.2,0-0.4,0-0.5,0.1
				c-0.8,0.2-1.3,1.1-2.4,3.6l0,0c-0.7,1.5-1.7,3.6-1.3,4c0.2,0.2,0.8,0.4,3-0.2c1.3-0.3,2.8-0.7,3.6-2c0.8-1.3,0.9-3.3-0.2-4.5
				C188.4,287.2,187.6,286.8,186.8,286.8z"/>
		</g>
		<g class="st7">
			<path class="st4" d="M116.8,280.5c1.2-2.5,1.7-3.8,3.1-4.2c1.4-0.4,2.8,0.3,3.7,1.2c1.6,1.6,1.4,4.2,0.4,5.9
				c-1.1,1.8-2.9,2.2-4.3,2.5c-1.2,0.3-3.3,0.8-4.1-0.2C114.8,284.7,115.6,282.9,116.8,280.5z"/>
			<path class="st4" d="M117.3,287.4c-1,0-1.9-0.2-2.5-1c-1.2-1.5-0.3-3.5,1-6.4v0l1,0.5l-1-0.5c1.2-2.6,1.9-4.2,3.8-4.8
				c1.8-0.5,3.7,0.4,4.8,1.5c2,2,1.8,5.2,0.5,7.2c-1.3,2.1-3.5,2.7-5,3C119.3,287.1,118.2,287.4,117.3,287.4z M116.8,280.5l1,0.5
				l0,0c-0.7,1.5-1.7,3.6-1.3,4c0.2,0.2,0.8,0.4,3-0.2c1.3-0.3,2.8-0.7,3.6-2c0.8-1.3,0.9-3.3-0.2-4.5c-0.6-0.6-1.7-1.1-2.6-0.9
				c-0.8,0.2-1.3,1.1-2.4,3.5L116.8,280.5z"/>
		</g>
		<g class="st8">
			<path class="st4" d="M280,226.2c-0.7-2.5-1.1-1.9-2-2.3c-0.8-0.4-1.7-1.5-2.2-0.7c-1,1.6-0.9,4.2-0.2,5.9
				c0.6,1.8,1.8,2.2,2.6,2.5c0.7,0.3,2,0.8,2.5-0.2C281.3,230.4,280.7,228.6,280,226.2z"/>
			<path class="st4" d="M279.8,233c-0.8,0-1.6-0.3-2-0.5c-0.9-0.4-2.4-1-3.3-3.2c-0.7-1.9-0.8-4.9,0.3-6.8c0.3-0.6,0.8-0.8,1.1-0.8
				c0.8-0.2,1.4,0.3,1.9,0.7c0.2,0.1,0.4,0.3,0.5,0.4c0.1,0.1,0.2,0.1,0.3,0.1c1.2,0.3,1.7,1,2.3,2.9l-1.1,0.3l1.1-0.3
				c0.8,2.8,1.3,4.7,0.6,6C281.3,232.8,280.5,233,279.8,233z M276.6,224.2c-0.5,1.3-0.4,3.2,0.1,4.4c0.5,1.3,1.3,1.6,2,1.9
				c0.2,0.1,1,0.4,1.2,0.3c0.2-0.5-0.3-2.6-0.9-4.4l1.1-0.3l-1.1,0.3c-0.3-1.1-0.5-1.4-0.5-1.4c-0.4-0.1-0.6-0.1-0.9-0.3
				C277.2,224.7,276.9,224.5,276.6,224.2C276.6,224.2,276.6,224.2,276.6,224.2z"/>
		</g>
		<g class="st8">
			<path class="st4" d="M337.1,147.7c-0.7-2.5-1.1-1.9-2-2.3c-0.8-0.4-1.7-1.5-2.2-0.7c-1,1.6-0.9,4.2-0.2,5.9
				c0.6,1.8,1.8,2.2,2.6,2.5c0.7,0.3,2,0.8,2.5-0.2C338.3,151.9,337.8,150.1,337.1,147.7z"/>
			<path class="st4" d="M336.9,154.6c-0.8,0-1.6-0.3-1.9-0.4c-0.9-0.4-2.5-1-3.3-3.2c-0.7-1.9-0.8-4.9,0.3-6.8
				c0.3-0.6,0.8-0.8,1.1-0.8c0.8-0.2,1.4,0.3,1.9,0.7c0.2,0.1,0.4,0.3,0.5,0.4c0.1,0.1,0.2,0.1,0.3,0.1c1.2,0.3,1.7,1,2.3,2.9
				l-1.1,0.3l1.1-0.3c0.8,2.8,1.3,4.7,0.6,6C338.4,154.3,337.6,154.6,336.9,154.6z M333.7,145.7c-0.5,1.3-0.4,3.2,0.1,4.4
				c0.5,1.3,1.2,1.6,2,1.9c0.2,0.1,1,0.4,1.2,0.3c0.2-0.5-0.3-2.6-0.8-4.4l1.1-0.3l-1.1,0.3c-0.3-1.1-0.5-1.4-0.5-1.4
				c-0.4-0.1-0.6-0.1-0.9-0.3C334.3,146.2,334,146,333.7,145.7C333.7,145.7,333.7,145.7,333.7,145.7z"/>
		</g>
		<g class="st7">
			<path class="st4" d="M274.2,353.7c-0.7-2.5-1.1-3.8-1.9-4.2c-0.8-0.4-1.8,0.3-2.3,1.2c-1,1.6-0.9,4.2-0.2,5.9
				c0.6,1.8-0.8-0.3,0,0c0.7,0.3,4.6,0.7,5.1-0.3C275.4,355.4,274.9,356.1,274.2,353.7z"/>
			<path class="st4" d="M269.8,358.7L269,358c-0.3-0.3-0.8-1.1-0.5-1.8c-0.5-1.9-0.4-4.3,0.6-6c0.9-1.5,2.4-2.2,3.7-1.6
				c1.3,0.6,1.7,2,2.5,4.9l0,0c0.3,1,0.5,1.3,0.6,1.5c0.5,0.8,0.3,1.3,0,1.9c-0.7,1.4-3.3,1.3-5,1.1c-0.1,0.1-0.2,0.2-0.3,0.3
				L269.8,358.7z M269.4,357.6L269.4,357.6C269.4,357.6,269.4,357.6,269.4,357.6z M270.6,355.6c0.9,0.1,2.5,0.2,3.2,0.1
				c-0.2-0.4-0.4-0.9-0.7-1.7l0,0c-0.5-1.7-0.9-3.3-1.3-3.5c-0.1-0.1-0.5,0.2-0.9,0.7C270.3,352.4,270.3,354.3,270.6,355.6z"/>
		</g>
		<g>
			<path class="st4" d="M315.3,312.6c2.4-1,3.6-1.5,3.9-2.4s-0.5-1.7-1.4-2.1c-1.7-0.8-4.3-0.4-5.8,0.4c-1.7,0.8,0.2-0.9,0,0
				c-0.2,0.7-0.2,4.7,0.8,5.1C313.8,313.9,313,313.5,315.3,312.6z"/>
			<path class="st4" d="M313.3,314.8c-0.3,0-0.6-0.1-0.9-0.2c-1.5-0.6-1.7-3.2-1.6-4.9c-0.1-0.1-0.2-0.2-0.3-0.3l-0.6-0.7l0.6-0.8
				c0.3-0.4,1-0.9,1.7-0.7c1.8-0.7,4.3-0.9,6-0.1c1.6,0.8,2.5,2.1,2,3.5c-0.5,1.4-1.8,1.9-4.5,3.1l0,0c-1,0.4-1.3,0.6-1.5,0.8
				C313.9,314.7,313.6,314.8,313.3,314.8z M313,309.3c0,0.9,0,2.5,0.3,3.1c0.3-0.2,0.8-0.5,1.6-0.9l0,0c1.6-0.7,3.2-1.3,3.3-1.7
				c0-0.1-0.3-0.5-0.8-0.8C316.2,308.5,314.3,308.8,313,309.3z M310.9,308.2C310.9,308.2,310.9,308.2,310.9,308.2
				C310.9,308.2,310.9,308.2,310.9,308.2z"/>
		</g>
		<g class="st9">
			<path class="st4" d="M122.2,183.4c2.4-1,3.6-1.5,3.9-2.4c0.3-0.9-0.5-1.7-1.4-2.1c-1.7-0.8-4.3-0.4-5.8,0.4c-1.7,0.8,0.2-0.9,0,0
				c-0.2,0.7-0.2,4.7,0.8,5.1C120.7,184.8,119.9,184.4,122.2,183.4z"/>
			<path class="st4" d="M120.2,185.6c-0.3,0-0.6-0.1-0.9-0.2c-1.5-0.6-1.7-3.2-1.6-4.9c-0.1-0.1-0.2-0.2-0.3-0.3l-0.6-0.7l0.6-0.8
				c0.3-0.4,1-0.9,1.7-0.7c1.8-0.7,4.3-0.9,6.1-0.1c1.6,0.8,2.4,2.1,2,3.5c-0.4,1.4-1.8,1.9-4.6,3.1l0,0c-1,0.4-1.3,0.6-1.4,0.8
				C120.9,185.5,120.5,185.6,120.2,185.6z M119.9,180.1c-0.1,0.9,0,2.5,0.3,3.1c0.3-0.2,0.8-0.5,1.6-0.9l0,0
				c1.6-0.7,3.2-1.3,3.3-1.7c0.1-0.1-0.3-0.5-0.8-0.8C123.1,179.4,121.2,179.6,119.9,180.1z M117.8,179.1
				C117.8,179.1,117.8,179.1,117.8,179.1C117.8,179.1,117.8,179.1,117.8,179.1z"/>
		</g>
		<g class="st10">
			<path class="st4" d="M227.2,138.2c-0.7-2.5-1.1-3.8-1.9-4.2c-0.8-0.4-1.8,0.3-2.3,1.2c-1,1.6-0.9,4.2-0.2,5.9
				c0.6,1.8,1.3,0.3,2.1,0.6c0.7,0.3,1,0.2,1.5-0.8C226.9,139.9,227.9,140.6,227.2,138.2z"/>
			<path class="st4" d="M223.5,143c-0.2,0-0.4,0-0.6-0.1c-0.7-0.3-1-1-1.2-1.5c-0.7-1.9-0.8-4.9,0.3-6.8c0.9-1.5,2.4-2.2,3.7-1.6
				c1.3,0.6,1.7,2,2.5,4.9c0.5,1.8,0.3,2.7-0.7,3.4c-0.2,0.1-0.2,0.1-0.2,0.1c-0.5,1-1.3,2-2.9,1.3C224.2,142.8,223.9,143,223.5,143
				z M224.8,135c-0.2,0-0.5,0.3-0.8,0.7c-0.8,1.3-0.7,3.5-0.1,4.9c0,0,0,0,0,0c0.4-0.1,0.9-0.3,1.5,0c0-0.1,0.1-0.1,0.1-0.3
				c0.3-0.6,0.7-0.8,0.9-1c0-0.1,0-0.4-0.2-0.9l0,0C225.7,136.8,225.2,135.2,224.8,135C224.8,135,224.8,135,224.8,135z M226.3,139.4
				C226.3,139.4,226.3,139.4,226.3,139.4C226.3,139.4,226.3,139.4,226.3,139.4z"/>
		</g>
	</g>
</g>
</svg>
