<?xml version="1.0" standalone="no"?>
<!DOCTYPE svg PUBLIC "-//W3C//DTD SVG 20010904//EN"
 "http://www.w3.org/TR/2001/REC-SVG-20010904/DTD/svg10.dtd">
<svg version="1.0" xmlns="http://www.w3.org/2000/svg"
 width="4128.000000pt" height="2322.000000pt" viewBox="0 0 4128.000000 2322.000000"
 preserveAspectRatio="xMidYMid meet">
<metadata>
Created by potrace 1.16, written by Peter Selinger 2001-2019
</metadata>
<g transform="translate(0.000000,2322.000000) scale(0.100000,-0.100000)"
fill="#fff" stroke="none">
<path d="M10745 22879 c-135 -23 -190 -39 -317 -90 -256 -102 -429 -218 -617
-414 -229 -241 -370 -527 -431 -879 -7 -41 -10 -3214 -10 -9890 0 -9624 1
-9833 19 -9938 30 -166 114 -396 197 -538 81 -139 292 -380 409 -467 264 -196
525 -305 820 -343 67 -8 2573 -10 9910 -8 l9820 3 110 27 c506 120 928 449
1144 892 67 136 99 229 133 378 l23 103 0 9895 0 9895 -29 120 c-35 147 -53
197 -126 350 -153 317 -425 589 -750 750 -123 61 -289 120 -415 147 l-110 23
-9835 2 c-9675 1 -9837 1 -9945 -18z m3980 -3113 c422 -77 781 -268 1070 -567
267 -277 439 -607 516 -989 30 -149 38 -469 15 -634 -67 -476 -312 -916 -681
-1225 -262 -218 -561 -358 -905 -423 -154 -30 -513 -32 -660 -5 -289 53 -510
139 -735 285 -472 306 -775 768 -872 1327 -23 139 -24 481 0 620 49 283 144
528 294 755 230 348 530 592 921 750 146 58 285 93 507 124 74 10 444 -2 530
-18z m10419 -5082 c451 -37 910 -134 1276 -271 128 -48 372 -166 497 -240 736
-439 1221 -1159 1471 -2183 83 -340 112 -503 161 -920 41 -345 59 -617 71
-1045 5 -206 10 -1649 10 -3367 l0 -3008 -22 -4 c-13 -3 -768 -4 -1678 -3
l-1655 2 -6 2940 c-6 2880 -8 3026 -39 3341 -34 354 -110 679 -214 917 -90
207 -170 330 -300 465 -265 275 -605 412 -1086 437 -233 12 -549 -22 -780 -85
-116 -32 -205 -67 -330 -132 -376 -192 -644 -531 -802 -1013 -90 -272 -129
-490 -173 -952 -19 -211 -25 -877 -25 -3259 l0 -2661 -1672 1 -1673 1 0 5395
0 5395 1605 0 1605 0 5 -735 c4 -659 7 -735 21 -738 11 -2 37 34 84 115 108
183 238 353 409 532 579 607 1374 981 2281 1075 168 17 746 17 959 0z m-9069
-5644 l0 -5395 -1675 0 -1675 0 -3 5398 -2 5397 1677 -2 1678 -3 0 -5395z"/>
</g>
</svg>
