<?xml version="1.0" standalone="no"?>
<!DOCTYPE svg PUBLIC "-//W3C//DTD SVG 20010904//EN"
 "http://www.w3.org/TR/2001/REC-SVG-20010904/DTD/svg10.dtd">
<svg version="1.0" xmlns="http://www.w3.org/2000/svg"
 width="" height="" viewBox="0 0 128.000000 128.000000"
 preserveAspectRatio="xMidYMid meet">
<metadata>
Created by potrace 1.16, written by Peter Selinger 2001-2019
</metadata>
<g transform="translate(0.000000,128.000000) scale(0.100000,-0.100000)"
fill="#FF5733" stroke="none">
<path d="M482 1265 c-30 -7 -92 -32 -140 -55 -123 -61 -214 -154 -275 -281
-54 -111 -67 -169 -67 -289 0 -120 13 -178 67 -289 63 -131 153 -221 284 -284
111 -54 169 -67 289 -67 120 0 178 13 289 67 75 36 108 59 166 118 59 58 82
91 118 166 54 111 67 169 67 289 0 120 -13 178 -67 289 -63 131 -153 221 -284
284 -52 25 -118 50 -147 56 -70 15 -234 13 -300 -4z m236 -200 c115 -49 161
-187 96 -292 -40 -64 -119 -107 -185 -100 -107 9 -192 99 -192 200 0 148 147
248 281 192z m137 -532 c72 -38 115 -105 115 -179 0 -102 -225 -201 -397 -174
-83 13 -176 55 -225 102 -31 28 -38 43 -38 72 0 70 43 141 105 174 52 27 86
31 245 29 136 -2 160 -5 195 -24z"/>
</g>
</svg>
