<?xml version="1.0" standalone="no"?>
<!DOCTYPE svg PUBLIC "-//W3C//DTD SVG 20010904//EN"
 "http://www.w3.org/TR/2001/REC-SVG-20010904/DTD/svg10.dtd">
<svg version="1.0" xmlns="http://www.w3.org/2000/svg"
 width="512.000000pt" height="512.000000pt" viewBox="0 0 512.000000 512.000000"
 preserveAspectRatio="xMidYMid meet">

<g transform="translate(0.000000,512.000000) scale(0.100000,-0.100000)"
fill="#33f" stroke="none">
<path d="M512 5105 c-115 -25 -207 -78 -303 -174 -93 -93 -142 -171 -181 -286
l-23 -70 -3 -1997 c-3 -2231 -8 -2072 69 -2228 82 -165 252 -297 434 -335 60
-13 349 -15 2036 -15 1369 0 1983 3 2025 11 260 47 488 262 539 508 13 62 15
335 13 2079 l-3 2007 -27 73 c-38 105 -83 176 -158 252 -76 75 -147 120 -252
158 l-73 27 -2015 2 c-1674 1 -2026 -1 -2078 -12z m3414 -1291 c53 -39 69 -71
69 -134 0 -63 -16 -95 -69 -134 -27 -21 -32 -21 -1344 -24 -905 -2 -1328 0
-1354 8 -101 29 -140 168 -71 251 52 62 -33 59 1415 56 1323 -2 1327 -2 1354
-23z m0 -960 c53 -39 69 -71 69 -134 0 -63 -16 -95 -69 -134 -27 -21 -32 -21
-1344 -24 -905 -2 -1328 0 -1354 8 -101 29 -140 168 -71 251 52 62 -33 59
1415 56 1323 -2 1327 -2 1354 -23z m0 -960 c53 -39 69 -71 69 -134 0 -63 -16
-95 -69 -134 -27 -21 -32 -21 -1344 -24 -905 -2 -1328 0 -1354 8 -101 29 -140
168 -71 251 52 62 -33 59 1415 56 1323 -2 1327 -2 1354 -23z"/>
</g>
</svg>
